<?xml version="1.0" encoding="UTF-8"?>
<svg version="1.1" xmlns="http://www.w3.org/2000/svg" width="512" height="512">
<path d="M0 0 C1.11432019 -0.00525911 1.11432019 -0.00525911 2.25115189 -0.01062447 C4.74827965 -0.01995165 7.24517488 -0.01501178 9.74231243 -0.01015663 C11.54759066 -0.01389223 13.35286728 -0.01849338 15.15814131 -0.02388728 C20.12530748 -0.03614389 25.09240642 -0.03585368 30.05958426 -0.03349853 C35.41417491 -0.03309103 40.76874382 -0.04412305 46.12332439 -0.05361366 C56.61633069 -0.07023916 67.10931451 -0.07572391 77.60233287 -0.07683842 C86.12999052 -0.07778815 94.65764075 -0.08189467 103.18529606 -0.08823967 C127.35307122 -0.10585621 151.52082861 -0.11507788 175.68861023 -0.11357872 C176.99198549 -0.11349881 178.29536075 -0.1134189 179.63823223 -0.11333656 C181.59567715 -0.11321392 181.59567715 -0.11321392 183.59266641 -0.1130888 C204.74544917 -0.11227576 225.89816074 -0.13141704 247.05092291 -0.1596133 C268.76092315 -0.18832442 290.47088866 -0.20215457 312.18090838 -0.20042574 C324.37325971 -0.19976124 336.56553642 -0.20528017 348.75787067 -0.22678185 C359.13815444 -0.24497031 369.51832977 -0.24936017 379.89862255 -0.235763 C385.19579633 -0.22922161 390.49276191 -0.22915844 395.78991604 -0.2464695 C400.6389878 -0.26215339 405.48768547 -0.25938452 410.33674785 -0.24190123 C412.09110493 -0.23882101 413.84548961 -0.24250208 415.59981415 -0.25362138 C433.21847452 -0.3578978 433.21847452 -0.3578978 440.59013653 6.00336266 C441.03615215 6.56152672 441.48216778 7.11969078 441.94169903 7.69476891 C442.63392559 8.52814781 442.63392559 8.52814781 443.34013653 9.37836266 C446.36695085 14.0149795 446.85644836 18.25997721 446.82396793 23.69056988 C446.82747401 24.43345 446.83098008 25.17633012 446.8345924 25.94172177 C446.84391958 28.43884953 446.83897971 30.93574476 446.83412457 33.43288231 C446.83786016 35.23816054 446.84246132 37.04343715 446.84785521 38.84871119 C446.86011182 43.81587735 446.85982161 48.7829763 446.85746646 53.75015414 C446.85705897 59.10474479 446.86809098 64.4593137 446.8775816 69.81389427 C446.89420709 80.30690056 446.89969184 90.79988439 446.90080635 101.29290275 C446.90175608 109.8205604 446.90586261 118.34821063 446.9122076 126.87586594 C446.92982414 151.0436411 446.93904581 175.21139848 446.93754666 199.37918011 C446.93746674 200.68255537 446.93738683 201.98593063 446.9373045 203.32880211 C446.93722274 204.63376539 446.93714097 205.93872867 446.93705674 207.28323629 C446.93624369 228.43601905 446.95538497 249.58873062 446.98358123 270.74149279 C447.01229235 292.45149303 447.0261225 314.16145854 447.02439368 335.87147826 C447.02372917 348.06382959 447.0292481 360.2561063 447.05074978 372.44844055 C447.06893824 382.82872432 447.0733281 393.20889964 447.05973093 403.58919243 C447.05318954 408.88636621 447.05312637 414.18333179 447.07043743 419.48048592 C447.08612133 424.32955768 447.08335245 429.17825535 447.06586917 434.02731773 C447.06278894 435.78167481 447.06647001 437.53605948 447.07758932 439.29038403 C447.18186573 456.9090444 447.18186573 456.9090444 440.82060528 464.28070641 C440.26244122 464.72672203 439.70427715 465.17273766 439.12919903 465.63226891 C438.57361309 466.09375328 438.01802715 466.55523766 437.44560528 467.03070641 C432.80898843 470.05752073 428.56399073 470.54701824 423.13339806 470.51453781 C422.01907787 470.51979692 422.01907787 470.51979692 420.88224617 470.52516228 C418.3851184 470.53448946 415.88822318 470.52954959 413.39108562 470.52469444 C411.58580739 470.52843004 409.78053078 470.5330312 407.97525674 470.53842509 C403.00809058 470.5506817 398.04099164 470.55039149 393.0738138 470.54803634 C387.71922314 470.54762884 382.36465423 470.55866086 377.01007366 470.56815147 C366.51706737 470.58477697 356.02408355 470.59026172 345.53106519 470.59137623 C337.00340753 470.59232596 328.4757573 470.59643249 319.948102 470.60277748 C295.78032684 470.62039402 271.61256945 470.62961569 247.44478782 470.62811653 C246.14141256 470.62803662 244.8380373 470.62795671 243.49516582 470.62787437 C241.53772091 470.62775173 241.53772091 470.62775173 239.54073165 470.62762661 C218.38794889 470.62681357 197.23523731 470.64595485 176.08247515 470.67415111 C154.3724749 470.70286223 132.66250939 470.71669238 110.95248967 470.71496356 C98.76013834 470.71429905 86.56786164 470.71981798 74.37552738 470.74131966 C63.99524361 470.75950812 53.61506829 470.76389798 43.23477551 470.75030081 C37.93760173 470.74375942 32.64063614 470.74369625 27.34348202 470.76100731 C22.49441025 470.77669121 17.64571259 470.77392233 12.79665021 470.75643905 C11.04229313 470.75335882 9.28790845 470.75703989 7.5335839 470.7681592 C-10.08507647 470.87243561 -10.08507647 470.87243561 -17.45673847 464.51117516 C-17.9027541 463.95301109 -18.34876972 463.39484703 -18.80830097 462.81976891 C-19.26978535 462.26418297 -19.73126972 461.70859703 -20.20673847 461.13617516 C-23.2335528 456.49955831 -23.72305031 452.2545606 -23.69056988 446.82396793 C-23.69407595 446.08108781 -23.69758203 445.33820769 -23.70119435 444.57281604 C-23.71052152 442.07568828 -23.70558166 439.57879305 -23.70072651 437.0816555 C-23.7044621 435.27637727 -23.70906326 433.47110066 -23.71445715 431.66582662 C-23.72671376 426.69866046 -23.72642356 421.73156151 -23.7240684 416.76438367 C-23.72366091 411.40979302 -23.73469293 406.05522411 -23.74418354 400.70064354 C-23.76080904 390.20763725 -23.76629378 379.71465342 -23.7674083 369.22163507 C-23.76835802 360.69397741 -23.77246455 352.16632718 -23.77880955 343.63867188 C-23.79642609 319.47089671 -23.80564776 295.30313933 -23.8041486 271.1353577 C-23.80406869 269.83198244 -23.80398877 268.52860718 -23.80390644 267.1857357 C-23.80382468 265.88077242 -23.80374292 264.57580914 -23.80365868 263.23130152 C-23.80284563 242.07851877 -23.82198692 220.92580719 -23.85018317 199.77304503 C-23.8788943 178.06304478 -23.89272445 156.35307927 -23.89099562 134.64305955 C-23.89033111 122.45070822 -23.89585004 110.25843151 -23.91735172 98.06609726 C-23.93554019 87.68581349 -23.93993005 77.30563817 -23.92633288 66.92534538 C-23.91979149 61.6281716 -23.91972832 56.33120602 -23.93703938 51.0340519 C-23.95272327 46.18498013 -23.94995439 41.33628246 -23.93247111 36.48722009 C-23.92939088 34.732863 -23.93307196 32.97847833 -23.94419126 31.22415378 C-24.04846768 13.60549341 -24.04846768 13.60549341 -17.68720722 6.23383141 C-17.12904316 5.78781578 -16.5708791 5.34180016 -15.99580097 4.88226891 C-15.44021503 4.42078453 -14.8846291 3.95930016 -14.31220722 3.48383141 C-9.67559038 0.45701708 -5.43059267 -0.03248043 0 0 Z " fill="#9545ED" transform="translate(44.43330097198486,20.74273109436035)"/>
<path d="M0 0 C126.72 0 253.44 0 384 0 C384 91.41 384 182.82 384 277 C257.28 277 130.56 277 0 277 C0 185.59 0 94.18 0 0 Z " fill="#F4EDFC" transform="translate(64,171)"/>
<path d="M0 0 C13.69147756 10.2396769 24.17900017 24.37008872 27.51953125 41.3359375 C29.50875992 56.50582769 28.36954084 71.42802646 20.30078125 84.8203125 C18.74377125 87.00630292 18.74377125 87.00630292 19 90 C21.02484188 91.51218959 21.02484188 91.51218959 23.6875 92.9375 C46.34688726 106.83020915 61.34820103 130.86143499 68.38671875 156.06640625 C69.90455961 163.32690615 70.22757567 170.66276032 70.3125 178.0625 C70.34150391 178.90876953 70.37050781 179.75503906 70.40039062 180.62695312 C70.46009992 186.5841034 69.47378305 191.0808088 66 196 C63.74609375 198.05859375 63.74609375 198.05859375 61.4375 199.4375 C60.67308594 199.91058594 59.90867187 200.38367188 59.12109375 200.87109375 C54.92857085 203.10247334 51.52670579 203.13618899 46.83506775 203.16062927 C46.10043716 203.16571709 45.36580656 203.17080491 44.60891443 203.17604691 C42.14023846 203.19177847 39.67159177 203.20029839 37.20288086 203.20874023 C35.43543308 203.21827831 33.66798718 203.22816945 31.90054321 203.23838806 C26.08866596 203.26978469 20.27677436 203.29004418 14.46484375 203.30859375 C13.47568946 203.31189107 12.48653517 203.31518839 11.46740651 203.31858563 C2.13605715 203.34937187 -7.19529546 203.37607641 -16.52668095 203.39300442 C-28.45591248 203.41489951 -40.38469326 203.45684311 -52.3137446 203.52644199 C-60.70454757 203.57373119 -69.09522915 203.59794473 -77.48616117 203.6052013 C-82.49563625 203.61015096 -87.5046034 203.62516622 -92.51393318 203.6649456 C-97.23122883 203.70191124 -101.94772855 203.71018919 -106.66514206 203.69693947 C-108.39125063 203.69699326 -110.11739536 203.70722387 -111.84337044 203.7286911 C-121.40341307 203.84118496 -129.43163286 203.66742832 -137 197 C-144.26258711 188.88067455 -142.58181764 177.30588742 -142.21777344 167.13671875 C-140.46786582 141.93177131 -124.30791252 116.37660793 -105.70703125 100.1484375 C-101.02221789 96.43033166 -96.05740581 93.18912016 -91 90 C-91.56247747 86.68195107 -92.23126658 84.55341625 -93.8125 81.5 C-101.16920671 67.02911537 -102.25162141 50.65571009 -98 35 C-91.08725263 15.69291261 -78.01421272 2.10926432 -59.609375 -6.60546875 C-40.3066057 -14.19477342 -17.25923438 -11.25111784 0 0 Z " fill="#9545ED" transform="translate(292,213)"/>
<path d="M0 0 C126.72 0 253.44 0 384 0 C384 21.12 384 42.24 384 64 C257.28 64 130.56 64 0 64 C0 42.88 0 21.76 0 0 Z " fill="#F4ECFC" transform="translate(64,64)"/>
<path d="M0 0 C8.91 0 17.82 0 27 0 C27 91.41 27 182.82 27 277 C18.09 277 9.18 277 0 277 C0 185.59 0 94.18 0 0 Z " fill="#E5D1FA" transform="translate(64,171)"/>
<path d="M0 0 C10.47865003 8.18216795 19.9336737 17.98469479 23.25 31.25 C-16.35 31.25 -55.95 31.25 -96.75 31.25 C-91.09024445 14.27073336 -79.65533434 2.27529427 -63.75 -5.75 C-43.75739041 -15.10727161 -18.09796715 -12.72434105 0 0 Z " fill="#F4EDFC" transform="translate(292.75,341.75)"/>
<path d="M0 0 C14.19 0 28.38 0 43 0 C43 13.86 43 27.72 43 42 C28.81 42 14.62 42 0 42 C0 28.14 0 14.28 0 0 Z " fill="#9546ED" transform="translate(181,75)"/>
<path d="M0 0 C14.19 0 28.38 0 43 0 C43 13.86 43 27.72 43 42 C28.81 42 14.62 42 0 42 C0 28.14 0 14.28 0 0 Z " fill="#9546ED" transform="translate(96,75)"/>
<path d="M0 0 C13.86 0 27.72 0 42 0 C42 13.86 42 27.72 42 42 C28.14 42 14.28 42 0 42 C0 28.14 0 14.28 0 0 Z " fill="#9545ED" transform="translate(267,75)"/>
<path d="M0 0 C8.91 0 17.82 0 27 0 C27 21.12 27 42.24 27 64 C18.09 64 9.18 64 0 64 C0 42.88 0 21.76 0 0 Z " fill="#E5D1FA" transform="translate(64,64)"/>
<path d="M0 0 C4.40895789 3.08449272 7.54572707 6.77207965 9.625 11.75 C10.52551326 19.07975906 10.20439348 25.75126235 5.625 31.75 C0.65799043 37.02303385 -3.88406591 39.76873492 -11.1875 40.125 C-17.26564023 39.971466 -21.685188 38.27244592 -26.1328125 34.1015625 C-31.55535278 28.10271359 -32.89621429 22.79890816 -32.7578125 14.76171875 C-32.02278459 8.97899914 -29.07762825 5.45262825 -25.0625 1.4375 C-16.87998335 -3.70035929 -8.68251218 -5.09976552 0 0 Z " fill="#F3ECFC" transform="translate(267.375,248.25)"/>
</svg>
